<svg width="16" height="17" viewBox="0 0 16 17" fill="none" xmlns="http://www.w3.org/2000/svg">
<path d="M0 1.03993C0 0.898351 0.0561921 0.76257 0.156215 0.662458C0.256237 0.562346 0.391897 0.506104 0.53335 0.506104H2.1334C2.25237 0.506136 2.36791 0.545981 2.46166 0.619301C2.5554 0.692621 2.62196 0.795207 2.65075 0.910744L3.08276 2.64141H15.4671C15.5455 2.64148 15.6228 2.65882 15.6937 2.69218C15.7645 2.72554 15.8272 2.77412 15.8772 2.83445C15.9272 2.89478 15.9633 2.96539 15.9829 3.04127C16.0026 3.11714 16.0053 3.19642 15.9909 3.27346L14.3908 11.8147C14.368 11.937 14.3031 12.0475 14.2075 12.127C14.1118 12.2066 13.9914 12.2502 13.8671 12.2503H4.2668C4.14246 12.2502 4.02206 12.2066 3.92643 12.127C3.83079 12.0475 3.76593 11.937 3.74305 11.8147L2.14407 3.28948L1.71739 1.57376H0.53335C0.391897 1.57376 0.256237 1.51752 0.156215 1.4174C0.0561921 1.31729 0 1.18151 0 1.03993ZM3.3089 3.70907L4.70948 11.1826H13.4244L14.825 3.70907H3.3089ZM5.3335 12.2503C4.76769 12.2503 4.22505 12.4753 3.82496 12.8757C3.42487 13.2762 3.2001 13.8193 3.2001 14.3856C3.2001 14.9519 3.42487 15.4951 3.82496 15.8955C4.22505 16.2959 4.76769 16.5209 5.3335 16.5209C5.89931 16.5209 6.44195 16.2959 6.84204 15.8955C7.24213 15.4951 7.4669 14.9519 7.4669 14.3856C7.4669 13.8193 7.24213 13.2762 6.84204 12.8757C6.44195 12.4753 5.89931 12.2503 5.3335 12.2503ZM12.8004 12.2503C12.2346 12.2503 11.6919 12.4753 11.2919 12.8757C10.8918 13.2762 10.667 13.8193 10.667 14.3856C10.667 14.9519 10.8918 15.4951 11.2919 15.8955C11.6919 16.2959 12.2346 16.5209 12.8004 16.5209C13.3662 16.5209 13.9088 16.2959 14.3089 15.8955C14.709 15.4951 14.9338 14.9519 14.9338 14.3856C14.9338 13.8193 14.709 13.2762 14.3089 12.8757C13.9088 12.4753 13.3662 12.2503 12.8004 12.2503ZM5.3335 13.318C5.6164 13.318 5.88772 13.4304 6.08777 13.6307C6.28781 13.8309 6.4002 14.1024 6.4002 14.3856C6.4002 14.6688 6.28781 14.9403 6.08777 15.1406C5.88772 15.3408 5.6164 15.4533 5.3335 15.4533C5.05059 15.4533 4.77927 15.3408 4.57923 15.1406C4.37918 14.9403 4.2668 14.6688 4.2668 14.3856C4.2668 14.1024 4.37918 13.8309 4.57923 13.6307C4.77927 13.4304 5.05059 13.318 5.3335 13.318ZM12.8004 13.318C13.0833 13.318 13.3546 13.4304 13.5547 13.6307C13.7547 13.8309 13.8671 14.1024 13.8671 14.3856C13.8671 14.6688 13.7547 14.9403 13.5547 15.1406C13.3546 15.3408 13.0833 15.4533 12.8004 15.4533C12.5175 15.4533 12.2462 15.3408 12.0461 15.1406C11.8461 14.9403 11.7337 14.6688 11.7337 14.3856C11.7337 14.1024 11.8461 13.8309 12.0461 13.6307C12.2462 13.4304 12.5175 13.318 12.8004 13.318V13.318Z" fill="black"/>
</svg>
